<svg width="198" height="47" viewBox="0 0 198 47" fill="none" xmlns="http://www.w3.org/2000/svg">
<rect width="11.3574" height="30.8922" fill="#949494"/>
<rect x="17.7176" y="15.446" width="11.3574" height="30.8922" fill="#D9D9D9"/>
<path d="M55.5332 33.8144V29.9765H46.3455V13.2002H42.3332V33.8144H55.5332ZM64.7659 30.7324C62.876 30.7324 61.1315 29.3368 61.1315 26.6619C61.1315 23.9579 62.876 22.5914 64.7659 22.5914C66.6558 22.5914 68.4003 23.9579 68.4003 26.6619C68.4003 29.3659 66.6558 30.7324 64.7659 30.7324ZM64.7659 19.0733C60.4919 19.0733 57.2645 22.2425 57.2645 26.6619C57.2645 31.0522 60.4919 34.2505 64.7659 34.2505C69.0399 34.2505 72.2672 31.0522 72.2672 26.6619C72.2672 22.2425 69.0399 19.0733 64.7659 19.0733ZM84.0422 19.4513C83.7514 19.4222 83.4607 19.3932 83.1408 19.3932C81.9197 19.3932 79.9426 19.7421 79.0703 21.6319V19.5095H75.3197V33.8144H79.1866V27.2725C79.1866 24.1905 80.9021 23.2311 82.8792 23.2311C83.2281 23.2311 83.606 23.2601 84.0422 23.3474V19.4513ZM89.4406 25.0337C89.5278 23.7253 90.6327 22.2134 92.6388 22.2134C94.8485 22.2134 95.7789 23.609 95.8371 25.0337H89.4406ZM96.2151 28.7553C95.7499 30.0346 94.7613 30.9359 92.9587 30.9359C91.0397 30.9359 89.4406 29.5694 89.3534 27.6795H99.5878C99.5878 27.6214 99.6459 27.0399 99.6459 26.4875C99.6459 21.8936 97.0001 19.0733 92.5807 19.0733C88.9172 19.0733 85.5445 22.039 85.5445 26.6038C85.5445 31.4302 89.0045 34.2505 92.9296 34.2505C96.4477 34.2505 98.7155 32.1862 99.4424 29.7148L96.2151 28.7553ZM106.558 25.5861C106.558 23.9289 107.547 22.6205 109.233 22.6205C111.094 22.6205 111.879 23.8707 111.879 25.4698V33.8144H115.746V24.8011C115.746 21.661 114.118 19.1315 110.57 19.1315C109.029 19.1315 107.314 19.8002 106.442 21.283V19.5095H102.691V33.8144H106.558V25.5861ZM130.721 33.8144V19.5095H126.854V33.8144H130.721ZM126.389 14.8284C126.389 16.1077 127.465 17.1835 128.773 17.1835C130.11 17.1835 131.157 16.1077 131.157 14.8284C131.157 13.4909 130.11 12.4152 128.773 12.4152C127.465 12.4152 126.389 13.4909 126.389 14.8284ZM138.728 39.3386V32.4188C139.426 33.3782 140.879 34.1633 142.857 34.1633C146.898 34.1633 149.602 30.965 149.602 26.6328C149.602 22.3879 147.189 19.1896 143.002 19.1896C140.85 19.1896 139.251 20.1491 138.612 21.254V19.5095H134.861V39.3386H138.728ZM145.793 26.6619C145.793 29.2205 144.223 30.7033 142.246 30.7033C140.269 30.7033 138.67 29.1914 138.67 26.6619C138.67 24.1324 140.269 22.6496 142.246 22.6496C144.223 22.6496 145.793 24.1324 145.793 26.6619ZM151.443 29.8311C151.617 31.4593 153.1 34.2505 157.403 34.2505C161.154 34.2505 162.956 31.8663 162.956 29.5403C162.956 27.4469 161.532 25.7315 158.711 25.15L156.676 24.7139C155.891 24.5685 155.368 24.1324 155.368 23.4346C155.368 22.6205 156.182 22.0099 157.199 22.0099C158.828 22.0099 159.438 23.0857 159.555 23.9289L162.782 23.202C162.607 21.661 161.241 19.0733 157.17 19.0733C154.088 19.0733 151.821 21.1958 151.821 23.7544C151.821 25.7606 153.071 27.4179 155.833 28.0284L157.723 28.4646C158.828 28.6972 159.264 29.2205 159.264 29.8602C159.264 30.6161 158.653 31.2848 157.374 31.2848C155.688 31.2848 154.844 30.2381 154.757 29.1042L151.443 29.8311ZM172.434 30.7324C170.544 30.7324 168.8 29.3368 168.8 26.6619C168.8 23.9579 170.544 22.5914 172.434 22.5914C174.324 22.5914 176.069 23.9579 176.069 26.6619C176.069 29.3659 174.324 30.7324 172.434 30.7324ZM172.434 19.0733C168.16 19.0733 164.933 22.2425 164.933 26.6619C164.933 31.0522 168.16 34.2505 172.434 34.2505C176.708 34.2505 179.936 31.0522 179.936 26.6619C179.936 22.2425 176.708 19.0733 172.434 19.0733ZM186.855 25.5861C186.855 23.9289 187.844 22.6205 189.53 22.6205C191.391 22.6205 192.176 23.8707 192.176 25.4698V33.8144H196.043V24.8011C196.043 21.661 194.415 19.1315 190.867 19.1315C189.326 19.1315 187.611 19.8002 186.739 21.283V19.5095H182.988V33.8144H186.855V25.5861Z" fill="#949494"/>
</svg>
