<svg width="209" height="37" viewBox="0 0 209 37" fill="none" xmlns="http://www.w3.org/2000/svg">
<path d="M18.1157 0C15.7367 -2.83691e-08 13.381 0.468575 11.1831 1.37897C8.9852 2.28937 6.98815 3.62376 5.30595 5.30595C3.62376 6.98815 2.28937 8.9852 1.37897 11.1831C0.468575 13.381 -7.56195e-08 15.7367 0 18.1157C7.56196e-08 20.4946 0.468576 22.8503 1.37897 25.0482C2.28937 27.2461 3.62376 29.2432 5.30595 30.9254C6.98815 32.6076 8.98521 33.942 11.1831 34.8524C13.381 35.7627 15.7367 36.2313 18.1157 36.2313V30.7499C16.4565 30.7499 14.8136 30.4231 13.2808 29.7882C11.7479 29.1532 10.3551 28.2226 9.18192 27.0494C8.00873 25.8762 7.0781 24.4834 6.44317 22.9506C5.80824 21.4177 5.48144 19.7748 5.48144 18.1157C5.48144 16.4565 5.80824 14.8136 6.44317 13.2808C7.0781 11.7479 8.00873 10.3551 9.18192 9.18192C10.3551 8.00873 11.7479 7.0781 13.2808 6.44317C14.8136 5.80824 16.4565 5.48144 18.1157 5.48144V0Z" fill="#5D27F8"/>
<path fill-rule="evenodd" clip-rule="evenodd" d="M18.1157 13.7912H24.4269C26.8152 13.7912 28.7513 15.7273 28.7513 18.1156C28.7513 20.5039 26.8152 22.44 24.4269 22.44H18.1157C15.7274 22.44 13.7913 20.5039 13.7913 18.1156C13.7913 15.7273 15.7274 13.7912 18.1157 13.7912ZM8.99939 18.1156C8.99939 13.0808 13.0809 8.99933 18.1157 8.99933H24.4269C29.4617 8.99933 33.5432 13.0808 33.5432 18.1156C33.5432 23.1504 29.4617 27.2319 24.4269 27.2319H23.1412L19.7519 30.6212V27.2319H18.1157C13.0809 27.2319 8.99939 23.1504 8.99939 18.1156Z" fill="#276CF8"/>
<path d="M51.6419 26.7042C49.2153 26.7042 47.186 25.8882 45.5539 24.2561C43.9433 22.6241 43.1381 20.6055 43.1381 18.2004C43.1381 15.7953 43.9433 13.7767 45.5539 12.1447C47.186 10.5126 49.2153 9.69661 51.6419 9.69661C53.2095 9.69661 54.6375 10.0724 55.926 10.824C57.2144 11.5756 58.1915 12.5849 58.8572 13.8519L55.2817 15.9456C54.9596 15.2799 54.4657 14.7538 53.8 14.3672C53.1558 13.9807 52.4257 13.7874 51.6096 13.7874C50.3641 13.7874 49.3334 14.2062 48.5174 15.0437C47.7013 15.8597 47.2933 16.9119 47.2933 18.2004C47.2933 19.4674 47.7013 20.5196 48.5174 21.3571C49.3334 22.1731 50.3641 22.5811 51.6096 22.5811C52.4471 22.5811 53.188 22.3986 53.8322 22.0335C54.4979 21.647 54.9918 21.1209 55.3139 20.4552L58.9216 22.5167C58.213 23.7837 57.2144 24.8037 55.926 25.5768C54.6375 26.3284 53.2095 26.7042 51.6419 26.7042Z" fill="#0B1219"/>
<path d="M74.5897 24.2561C72.9361 25.8882 70.9176 26.7042 68.5339 26.7042C66.1503 26.7042 64.1317 25.8882 62.4782 24.2561C60.8462 22.6026 60.0301 20.584 60.0301 18.2004C60.0301 15.8168 60.8462 13.8089 62.4782 12.1769C64.1317 10.5234 66.1503 9.69661 68.5339 9.69661C70.9176 9.69661 72.9361 10.5234 74.5897 12.1769C76.2432 13.8089 77.0699 15.8168 77.0699 18.2004C77.0699 20.584 76.2432 22.6026 74.5897 24.2561ZM65.4094 21.3893C66.2469 22.2268 67.2884 22.6456 68.5339 22.6456C69.7794 22.6456 70.8209 22.2268 71.6584 21.3893C72.4959 20.5518 72.9147 19.4889 72.9147 18.2004C72.9147 16.9119 72.4959 15.849 71.6584 15.0115C70.8209 14.174 69.7794 13.7552 68.5339 13.7552C67.2884 13.7552 66.2469 14.174 65.4094 15.0115C64.5934 15.849 64.1854 16.9119 64.1854 18.2004C64.1854 19.4889 64.5934 20.5518 65.4094 21.3893Z" fill="#0B1219"/>
<path d="M88.9479 9.69661C90.7088 9.69661 92.1583 10.2871 93.2964 11.4682C94.456 12.6493 95.0358 14.2814 95.0358 16.3644V26.2532H90.8805V16.8797C90.8805 15.806 90.5906 14.99 90.0108 14.4317C89.431 13.8519 88.658 13.562 87.6916 13.562C86.6179 13.562 85.7589 13.8948 85.1147 14.5605C84.4705 15.2262 84.1484 16.2248 84.1484 17.5562V26.2532H79.9931V10.1476H84.1484V11.9514C85.1577 10.4482 86.7575 9.69661 88.9479 9.69661Z" fill="#0B1219"/>
<path d="M108.898 10.1476H113.472L107.352 26.2532H102.617L96.4969 10.1476H101.071L104.968 21.4215L108.898 10.1476Z" fill="#0B1219"/>
<path d="M118.358 19.9076C118.916 21.9262 120.43 22.9355 122.9 22.9355C124.489 22.9355 125.691 22.3986 126.507 21.3249L129.857 23.2576C128.268 25.5553 125.927 26.7042 122.835 26.7042C120.172 26.7042 118.036 25.8989 116.425 24.2883C114.815 22.6778 114.009 20.6485 114.009 18.2004C114.009 15.7738 114.804 13.7552 116.393 12.1447C117.982 10.5126 120.022 9.69661 122.513 9.69661C124.875 9.69661 126.819 10.5126 128.343 12.1447C129.889 13.7767 130.663 15.7953 130.663 18.2004C130.663 18.7373 130.609 19.3063 130.501 19.9076H118.358ZM118.293 16.6865H126.507C126.271 15.5913 125.777 14.7753 125.026 14.2384C124.295 13.7015 123.458 13.4331 122.513 13.4331C121.396 13.4331 120.473 13.723 119.743 14.3028C119.013 14.8612 118.53 15.6557 118.293 16.6865Z" fill="#0B1219"/>
<path d="M137.719 12.9177C138.105 11.887 138.739 11.1139 139.619 10.5985C140.521 10.0831 141.52 9.82545 142.615 9.82545V14.4639C141.348 14.3136 140.21 14.5713 139.2 15.237C138.212 15.9027 137.719 17.0086 137.719 18.5547V26.2532H133.563V10.1476H137.719V12.9177Z" fill="#0B1219"/>
<path d="M156.784 10.1476H160.843V25.4802C160.843 27.9712 160.016 29.8716 158.363 31.1816C156.73 32.4915 154.755 33.1465 152.436 33.1465C150.696 33.1465 149.161 32.8136 147.829 32.1479C146.519 31.4822 145.51 30.5051 144.802 29.2167L148.345 27.1874C149.161 28.6906 150.567 29.4422 152.564 29.4422C153.874 29.4422 154.905 29.0986 155.657 28.4114C156.408 27.7242 156.784 26.7471 156.784 25.4802V23.7407C155.56 25.3728 153.842 26.1888 151.63 26.1888C149.354 26.1888 147.443 25.3943 145.897 23.8052C144.372 22.1946 143.61 20.2405 143.61 17.9427C143.61 15.6664 144.383 13.723 145.929 12.1125C147.475 10.5019 149.376 9.69661 151.63 9.69661C153.842 9.69661 155.56 10.5126 156.784 12.1447V10.1476ZM149.021 21.1316C149.88 21.9477 150.965 22.3557 152.275 22.3557C153.585 22.3557 154.658 21.9477 155.496 21.1316C156.355 20.2941 156.784 19.2312 156.784 17.9427C156.784 16.6757 156.355 15.6342 155.496 14.8182C154.658 13.9807 153.585 13.562 152.275 13.562C150.965 13.562 149.88 13.9807 149.021 14.8182C148.184 15.6342 147.765 16.6757 147.765 17.9427C147.765 19.2312 148.184 20.2941 149.021 21.1316Z" fill="#0B1219"/>
<path d="M168.122 19.9076C168.68 21.9262 170.194 22.9355 172.664 22.9355C174.253 22.9355 175.455 22.3986 176.271 21.3249L179.621 23.2576C178.032 25.5553 175.691 26.7042 172.599 26.7042C169.936 26.7042 167.8 25.8989 166.189 24.2883C164.579 22.6778 163.773 20.6485 163.773 18.2004C163.773 15.7738 164.568 13.7552 166.157 12.1447C167.746 10.5126 169.786 9.69661 172.277 9.69661C174.639 9.69661 176.583 10.5126 178.107 12.1447C179.653 13.7767 180.427 15.7953 180.427 18.2004C180.427 18.7373 180.373 19.3063 180.265 19.9076H168.122ZM168.057 16.6865H176.271C176.035 15.5913 175.541 14.7753 174.79 14.2384C174.059 13.7015 173.222 13.4331 172.277 13.4331C171.16 13.4331 170.237 13.723 169.507 14.3028C168.777 14.8612 168.294 15.6557 168.057 16.6865Z" fill="#0B1219"/>
<path d="M191.52 7.24855C189.244 7.07675 188.106 7.98941 188.106 9.98651V10.1476H191.52V14.1418H188.106V26.2532H183.951V14.1418H181.631V10.1476H183.951V9.98651C183.951 7.71024 184.584 5.98157 185.851 4.80048C187.118 3.6194 189.008 3.10402 191.52 3.25434V7.24855Z" fill="#0B1219"/>
<path d="M204.555 10.1476H209L203.138 26.2532C202.3 28.5724 201.183 30.2474 199.788 31.2782C198.413 32.3304 196.695 32.8029 194.634 32.6955V28.8301C195.75 28.8516 196.631 28.6154 197.275 28.1215C197.941 27.6276 198.467 26.833 198.853 25.7379L192.25 10.1476H196.792L200.979 20.9706L204.555 10.1476Z" fill="#0B1219"/>
</svg>
