<svg width="209" height="37" viewBox="0 0 209 37" fill="none" xmlns="http://www.w3.org/2000/svg">
<path d="M18.1157 0C15.7367 -2.83691e-08 13.381 0.468575 11.1831 1.37897C8.9852 2.28937 6.98815 3.62376 5.30595 5.30595C3.62376 6.98815 2.28937 8.9852 1.37897 11.1831C0.468575 13.381 -7.56195e-08 15.7367 0 18.1157C7.56196e-08 20.4946 0.468576 22.8503 1.37897 25.0482C2.28937 27.2461 3.62376 29.2432 5.30595 30.9254C6.98815 32.6076 8.98521 33.942 11.1831 34.8524C13.381 35.7627 15.7367 36.2313 18.1157 36.2313V30.7499C16.4565 30.7499 14.8136 30.4231 13.2808 29.7882C11.7479 29.1532 10.3551 28.2226 9.18192 27.0494C8.00873 25.8762 7.0781 24.4834 6.44317 22.9506C5.80824 21.4177 5.48144 19.7748 5.48144 18.1157C5.48144 16.4565 5.80824 14.8136 6.44317 13.2808C7.0781 11.7479 8.00873 10.3551 9.18192 9.18192C10.3551 8.00873 11.7479 7.0781 13.2808 6.44317C14.8136 5.80824 16.4565 5.48144 18.1157 5.48144V0Z" fill="#5D27F8"/>
<path fill-rule="evenodd" clip-rule="evenodd" d="M18.1157 13.7909H24.4269C26.8152 13.7909 28.7513 15.727 28.7513 18.1153C28.7513 20.5036 26.8152 22.4397 24.4269 22.4397H18.1157C15.7274 22.4397 13.7913 20.5036 13.7913 18.1153C13.7913 15.727 15.7274 13.7909 18.1157 13.7909ZM8.99939 18.1153C8.99939 13.0805 13.0809 8.99902 18.1157 8.99902H24.4269C29.4617 8.99902 33.5432 13.0805 33.5432 18.1153C33.5432 23.1501 29.4617 27.2316 24.4269 27.2316H23.1412L19.7519 30.6208V27.2316H18.1157C13.0809 27.2316 8.99939 23.1501 8.99939 18.1153Z" fill="#276CF8"/>
<path d="M51.6419 26.7038C49.2153 26.7038 47.186 25.8878 45.5539 24.2558C43.9433 22.6237 43.1381 20.6051 43.1381 18.2C43.1381 15.7949 43.9433 13.7763 45.5539 12.1443C47.186 10.5123 49.2153 9.69624 51.6419 9.69624C53.2095 9.69624 54.6375 10.072 55.926 10.8236C57.2144 11.5752 58.1915 12.5845 58.8572 13.8515L55.2817 15.9452C54.9596 15.2795 54.4657 14.7534 53.8 14.3669C53.1558 13.9803 52.4257 13.7871 51.6096 13.7871C50.3641 13.7871 49.3334 14.2058 48.5174 15.0433C47.7013 15.8593 47.2933 16.9116 47.2933 18.2C47.2933 19.467 47.7013 20.5192 48.5174 21.3567C49.3334 22.1728 50.3641 22.5808 51.6096 22.5808C52.4471 22.5808 53.188 22.3982 53.8322 22.0332C54.4979 21.6466 54.9918 21.1205 55.3139 20.4548L58.9216 22.5164C58.213 23.7833 57.2144 24.8034 55.926 25.5764C54.6375 26.328 53.2095 26.7038 51.6419 26.7038Z" fill="white"/>
<path d="M74.5897 24.2558C72.9361 25.8878 70.9176 26.7038 68.5339 26.7038C66.1503 26.7038 64.1317 25.8878 62.4782 24.2558C60.8462 22.6022 60.0301 20.5837 60.0301 18.2C60.0301 15.8164 60.8462 13.8086 62.4782 12.1765C64.1317 10.523 66.1503 9.69624 68.5339 9.69624C70.9176 9.69624 72.9361 10.523 74.5897 12.1765C76.2432 13.8086 77.0699 15.8164 77.0699 18.2C77.0699 20.5837 76.2432 22.6022 74.5897 24.2558ZM65.4094 21.389C66.2469 22.2264 67.2884 22.6452 68.5339 22.6452C69.7794 22.6452 70.8209 22.2264 71.6584 21.389C72.4959 20.5515 72.9147 19.4885 72.9147 18.2C72.9147 16.9116 72.4959 15.8486 71.6584 15.0111C70.8209 14.1736 69.7794 13.7549 68.5339 13.7549C67.2884 13.7549 66.2469 14.1736 65.4094 15.0111C64.5934 15.8486 64.1854 16.9116 64.1854 18.2C64.1854 19.4885 64.5934 20.5515 65.4094 21.389Z" fill="white"/>
<path d="M88.9479 9.69624C90.7088 9.69624 92.1583 10.2868 93.2964 11.4679C94.456 12.6489 95.0358 14.281 95.0358 16.364V26.2529H90.8805V16.8794C90.8805 15.8057 90.5906 14.9896 90.0108 14.4313C89.431 13.8515 88.658 13.5616 87.6916 13.5616C86.6179 13.5616 85.7589 13.8945 85.1147 14.5602C84.4705 15.2259 84.1484 16.2244 84.1484 17.5558V26.2529H79.9931V10.1472H84.1484V11.951C85.1577 10.4478 86.7575 9.69624 88.9479 9.69624Z" fill="white"/>
<path d="M108.898 10.1472H113.472L107.352 26.2529H102.617L96.4969 10.1472H101.071L104.968 21.4212L108.898 10.1472Z" fill="white"/>
<path d="M118.358 19.9072C118.916 21.9258 120.43 22.9351 122.9 22.9351C124.489 22.9351 125.691 22.3982 126.507 21.3245L129.857 23.2572C128.268 25.555 125.927 26.7038 122.835 26.7038C120.172 26.7038 118.036 25.8985 116.425 24.288C114.815 22.6774 114.009 20.6481 114.009 18.2C114.009 15.7734 114.804 13.7549 116.393 12.1443C117.982 10.5123 120.022 9.69624 122.513 9.69624C124.875 9.69624 126.819 10.5123 128.343 12.1443C129.889 13.7763 130.663 15.7949 130.663 18.2C130.663 18.7369 130.609 19.306 130.501 19.9072H118.358ZM118.293 16.6861H126.507C126.271 15.5909 125.777 14.7749 125.026 14.238C124.295 13.7012 123.458 13.4328 122.513 13.4328C121.396 13.4328 120.473 13.7227 119.743 14.3025C119.013 14.8608 118.53 15.6553 118.293 16.6861Z" fill="white"/>
<path d="M137.719 12.9174C138.105 11.8866 138.739 11.1135 139.619 10.5982C140.521 10.0828 141.52 9.82509 142.615 9.82509V14.4635C141.348 14.3132 140.21 14.5709 139.2 15.2366C138.212 15.9023 137.719 17.0082 137.719 18.5544V26.2529H133.563V10.1472H137.719V12.9174Z" fill="white"/>
<path d="M156.784 10.1472H160.843V25.4798C160.843 27.9708 160.016 29.8713 158.363 31.1812C156.73 32.4911 154.755 33.1461 152.436 33.1461C150.696 33.1461 149.161 32.8132 147.829 32.1475C146.519 31.4818 145.51 30.5048 144.802 29.2163L148.345 27.187C149.161 28.6902 150.567 29.4418 152.564 29.4418C153.874 29.4418 154.905 29.0982 155.657 28.411C156.408 27.7239 156.784 26.7468 156.784 25.4798V23.7404C155.56 25.3724 153.842 26.1884 151.63 26.1884C149.354 26.1884 147.443 25.3939 145.897 23.8048C144.372 22.1942 143.61 20.2401 143.61 17.9423C143.61 15.6661 144.383 13.7227 145.929 12.1121C147.475 10.5015 149.376 9.69624 151.63 9.69624C153.842 9.69624 155.56 10.5123 156.784 12.1443V10.1472ZM149.021 21.1313C149.88 21.9473 150.965 22.3553 152.275 22.3553C153.585 22.3553 154.658 21.9473 155.496 21.1313C156.355 20.2938 156.784 19.2308 156.784 17.9423C156.784 16.6754 156.355 15.6339 155.496 14.8178C154.658 13.9803 153.585 13.5616 152.275 13.5616C150.965 13.5616 149.88 13.9803 149.021 14.8178C148.184 15.6339 147.765 16.6754 147.765 17.9423C147.765 19.2308 148.184 20.2938 149.021 21.1313Z" fill="white"/>
<path d="M168.122 19.9072C168.68 21.9258 170.194 22.9351 172.664 22.9351C174.253 22.9351 175.455 22.3982 176.271 21.3245L179.621 23.2572C178.032 25.555 175.691 26.7038 172.599 26.7038C169.936 26.7038 167.8 25.8985 166.189 24.288C164.579 22.6774 163.773 20.6481 163.773 18.2C163.773 15.7734 164.568 13.7549 166.157 12.1443C167.746 10.5123 169.786 9.69624 172.277 9.69624C174.639 9.69624 176.583 10.5123 178.107 12.1443C179.653 13.7763 180.427 15.7949 180.427 18.2C180.427 18.7369 180.373 19.306 180.265 19.9072H168.122ZM168.057 16.6861H176.271C176.035 15.5909 175.541 14.7749 174.79 14.238C174.059 13.7012 173.222 13.4328 172.277 13.4328C171.16 13.4328 170.237 13.7227 169.507 14.3025C168.777 14.8608 168.294 15.6553 168.057 16.6861Z" fill="white"/>
<path d="M191.52 7.24818C189.244 7.07638 188.106 7.98904 188.106 9.98614V10.1472H191.52V14.1414H188.106V26.2529H183.951V14.1414H181.631V10.1472H183.951V9.98614C183.951 7.70988 184.584 5.9812 185.851 4.80012C187.118 3.61904 189.008 3.10365 191.52 3.25397V7.24818Z" fill="white"/>
<path d="M204.555 10.1472H209L203.138 26.2529C202.3 28.5721 201.183 30.2471 199.788 31.2778C198.413 32.3301 196.695 32.8025 194.634 32.6951V28.8298C195.75 28.8512 196.631 28.615 197.275 28.1211C197.941 27.6272 198.467 26.8327 198.853 25.7375L192.25 10.1472H196.792L200.979 20.9702L204.555 10.1472Z" fill="white"/>
</svg>
