<svg width="21" height="20" viewBox="0 0 21 20" fill="none" xmlns="http://www.w3.org/2000/svg">
<path d="M11.73 1.51014L13.49 5.03014C13.73 5.52014 14.37 5.99014 14.91 6.08014L18.1 6.61014C20.14 6.95014 20.62 8.43014 19.15 9.89014L16.67 12.3701C16.25 12.7901 16.02 13.6001 16.15 14.1801L16.86 17.2501C17.42 19.6801 16.13 20.6201 13.98 19.3501L10.99 17.5801C10.45 17.2601 9.55997 17.2601 9.00997 17.5801L6.01997 19.3501C3.87997 20.6201 2.57997 19.6701 3.13997 17.2501L3.84997 14.1801C3.97997 13.6001 3.74997 12.7901 3.32997 12.3701L0.84997 9.89014C-0.61003 8.43014 -0.14003 6.95014 1.89997 6.61014L5.08997 6.08014C5.61997 5.99014 6.25997 5.52014 6.49997 5.03014L8.25997 1.51014C9.21997 -0.399863 10.78 -0.399863 11.73 1.51014Z" fill="#0C214D"/>
</svg>
