<svg width="64" height="64" viewBox="0 0 64 64" fill="none" xmlns="http://www.w3.org/2000/svg">
<circle opacity="0.2" cx="32" cy="32" r="24" fill="#F13232"/>
<path d="M38 27V37C38 37.62 37.98 38.17 37.91 38.66C37.62 41.29 36.38 42 33 42H31C27.62 42 26.38 41.29 26.09 38.66C26.02 38.17 26 37.62 26 37V27C26 26.38 26.02 25.83 26.09 25.34C26.38 22.71 27.62 22 31 22H33C36.38 22 37.62 22.71 37.91 25.34C37.98 25.83 38 26.38 38 27Z" stroke="#A30000" stroke-width="1.33333" stroke-linecap="round" stroke-linejoin="round"/>
<path d="M26 37C26 37.62 26.02 38.17 26.09 38.66C25.95 38.67 25.82 38.67 25.67 38.67H25.33C22.67 38.67 22 38 22 35.33V28.67C22 26 22.67 25.33 25.33 25.33H25.67C25.82 25.33 25.95 25.33 26.09 25.34C26.02 25.83 26 26.38 26 27V37Z" stroke="#A30000" stroke-width="1.33333" stroke-linecap="round" stroke-linejoin="round"/>
<path d="M42 28.67V35.33C42 38 41.33 38.67 38.67 38.67H38.33C38.18 38.67 38.05 38.67 37.91 38.66C37.98 38.17 38 37.62 38 37V27C38 26.38 37.98 25.83 37.91 25.34C38.05 25.33 38.18 25.33 38.33 25.33H38.67C41.33 25.33 42 26 42 28.67Z" stroke="#A30000" stroke-width="1.33333" stroke-linecap="round" stroke-linejoin="round"/>
</svg>
