<svg width="64" height="64" viewBox="0 0 64 64" fill="none" xmlns="http://www.w3.org/2000/svg">
<circle opacity="0.2" cx="32" cy="32" r="24" fill="#276CF8"/>
<path d="M36.96 25.17C38.96 26.56 40.34 28.77 40.62 31.32" stroke="#00287A" stroke-width="1.33333" stroke-linecap="round" stroke-linejoin="round"/>
<path d="M23.49 31.37C23.75 28.83 25.11 26.62 27.09 25.22" stroke="#00287A" stroke-width="1.33333" stroke-linecap="round" stroke-linejoin="round"/>
<path d="M28.1901 39.9401C29.3501 40.5301 30.6701 40.8601 32.0601 40.8601C33.4001 40.8601 34.6601 40.5601 35.7901 40.0101" stroke="#00287A" stroke-width="1.33333" stroke-linecap="round" stroke-linejoin="round"/>
<path d="M32.06 26.7C33.5954 26.7 34.84 25.4554 34.84 23.92C34.84 22.3847 33.5954 21.14 32.06 21.14C30.5247 21.14 29.28 22.3847 29.28 23.92C29.28 25.4554 30.5247 26.7 32.06 26.7Z" stroke="#00287A" stroke-width="1.33333" stroke-linecap="round" stroke-linejoin="round"/>
<path d="M24.8299 38.92C26.3653 38.92 27.6099 37.6753 27.6099 36.14C27.6099 34.6046 26.3653 33.36 24.8299 33.36C23.2946 33.36 22.0499 34.6046 22.0499 36.14C22.0499 37.6753 23.2946 38.92 24.8299 38.92Z" stroke="#00287A" stroke-width="1.33333" stroke-linecap="round" stroke-linejoin="round"/>
<path d="M39.17 38.92C40.7054 38.92 41.95 37.6753 41.95 36.14C41.95 34.6046 40.7054 33.36 39.17 33.36C37.6347 33.36 36.39 34.6046 36.39 36.14C36.39 37.6753 37.6347 38.92 39.17 38.92Z" stroke="#00287A" stroke-width="1.33333" stroke-linecap="round" stroke-linejoin="round"/>
</svg>
