<svg width="64" height="64" viewBox="0 0 64 64" fill="none" xmlns="http://www.w3.org/2000/svg">
<circle opacity="0.2" cx="32" cy="32" r="24" fill="#199017"/>
<path d="M38 27.1599C37.94 27.1499 37.87 27.1499 37.81 27.1599C36.43 27.1099 35.33 25.9799 35.33 24.5799C35.33 23.1499 36.48 21.9999 37.91 21.9999C39.34 21.9999 40.49 23.1599 40.49 24.5799C40.48 25.9799 39.38 27.1099 38 27.1599Z" stroke="#015200" stroke-width="1.33333" stroke-linecap="round" stroke-linejoin="round"/>
<path d="M36.9701 34.44C38.3401 34.67 39.8501 34.43 40.9101 33.72C42.3201 32.78 42.3201 31.24 40.9101 30.3C39.8401 29.59 38.3101 29.35 36.9401 29.59" stroke="#015200" stroke-width="1.33333" stroke-linecap="round" stroke-linejoin="round"/>
<path d="M25.97 27.16C26.03 27.15 26.1 27.15 26.16 27.16C27.54 27.11 28.64 25.98 28.64 24.58C28.64 23.15 27.49 22 26.06 22C24.63 22 23.48 23.16 23.48 24.58C23.49 25.98 24.59 27.11 25.97 27.16Z" stroke="#015200" stroke-width="1.33333" stroke-linecap="round" stroke-linejoin="round"/>
<path d="M27.0001 34.44C25.6301 34.67 24.1201 34.43 23.0601 33.72C21.6501 32.78 21.6501 31.24 23.0601 30.3C24.1301 29.59 25.6601 29.35 27.0301 29.59" stroke="#015200" stroke-width="1.33333" stroke-linecap="round" stroke-linejoin="round"/>
<path d="M32 34.63C31.94 34.62 31.87 34.62 31.81 34.63C30.43 34.58 29.33 33.45 29.33 32.05C29.33 30.62 30.48 29.47 31.91 29.47C33.34 29.47 34.49 30.63 34.49 32.05C34.48 33.45 33.38 34.59 32 34.63Z" stroke="#015200" stroke-width="1.33333" stroke-linecap="round" stroke-linejoin="round"/>
<path d="M29.09 37.7799C27.68 38.7199 27.68 40.2599 29.09 41.1999C30.69 42.2699 33.31 42.2699 34.91 41.1999C36.32 40.2599 36.32 38.7199 34.91 37.7799C33.32 36.7199 30.69 36.7199 29.09 37.7799Z" stroke="#015200" stroke-width="1.33333" stroke-linecap="round" stroke-linejoin="round"/>
</svg>
