<svg width="64" height="64" viewBox="0 0 64 64" fill="none" xmlns="http://www.w3.org/2000/svg">
<circle opacity="0.2" cx="32" cy="32" r="24" fill="#CA2ABA"/>
<path d="M42 26.25V31.35C42 32.62 41.58 33.69 40.83 34.43C40.09 35.18 39.02 35.6 37.75 35.6V37.41C37.75 38.09 36.99 38.5 36.43 38.12L35.46 37.48C35.55 37.17 35.59 36.83 35.59 36.47V32.4C35.59 30.36 34.23 29 32.19 29H25.4C25.26 29 25.13 29.01 25 29.02V26.25C25 23.7 26.7 22 29.25 22H37.75C40.3 22 42 23.7 42 26.25Z" stroke="#9C008C" stroke-width="1.33333" stroke-miterlimit="10" stroke-linecap="round" stroke-linejoin="round"/>
<path d="M35.59 32.4V36.47C35.59 36.83 35.55 37.17 35.46 37.48C35.09 38.95 33.87 39.87 32.19 39.87H29.47L26.45 41.88C26 42.19 25.4 41.86 25.4 41.32V39.87C24.38 39.87 23.53 39.53 22.94 38.94C22.34 38.34 22 37.49 22 36.47V32.4C22 30.5 23.18 29.19 25 29.02C25.13 29.01 25.26 29 25.4 29H32.19C34.23 29 35.59 30.36 35.59 32.4Z" stroke="#9C008C" stroke-width="1.33333" stroke-miterlimit="10" stroke-linecap="round" stroke-linejoin="round"/>
</svg>
